<svg xmlns="http://www.w3.org/2000/svg" viewBox="0 0 170.86 249.21"><defs><style>.cls-1{fill:#010101;}.cls-2{fill:#ec2227;}</style></defs><g id="Layer_2" data-name="Layer 2"><g id="Layer_1-2" data-name="Layer 1"><path class="cls-1" d="M0,194.45c.24-1.91.46-3.84.72-5.75a105.3,105.3,0,0,1,7.59-27.42c4.56-10.59,9.41-21.07,13.93-31.68,3.09-7.27,5.65-14.75,6.63-22.66A47.23,47.23,0,0,0,26.7,86.21c-3.8-11.57-7.58-23.14-11.18-34.78a69.75,69.75,0,0,1-2.84-13.92,67,67,0,0,1,1.54-20.85,30.31,30.31,0,0,1,5-11.47A12.46,12.46,0,0,1,25.8,0H28a6.22,6.22,0,0,1,2.72,5.31c.27,4.93.31,9.89,1,14.77,1,7.05,2.72,13.94,7.07,19.81C42,44.3,45.63,48.37,50.44,51.22c4.54,2.7,9.17,3.47,14.13,1.3,2.78-1.22,4.27-3.62,5.64-6.13.3-.55.53-.87,1.23-.87,10.1,0,20.2,0,30.3,0a3.26,3.26,0,0,1,.45.1V47c0,6.57.11,13.14,0,19.7a12.1,12.1,0,0,0,3.44,8.55c4,4.55,9.12,5.59,14.91,4.5,4.87-.91,8.71-3.65,12.32-6.74,6.92-5.91,10.46-13.65,11.75-22.54.4-2.76.69-5.55,1.3-8.27a8,8,0,0,1,1.84-3.57c1.55-1.67,4.26-1.54,6.44,0,2.64,1.89,3.71,4.75,4.53,7.69,2.34,8.33,2,16.65-.06,25S153.33,87.77,150,95.76c-2.41,5.74-4.8,11.53-5.18,17.88a22,22,0,0,0,.89,7.56c2,6.84,5.15,13.17,8.08,19.61,5.59,12.25,11.59,24.37,14.48,37.66,1,4.61,1.59,9.32,2.38,14a5.48,5.48,0,0,0,.23.79v11.92a2.07,2.07,0,0,0-.2.43A54.53,54.53,0,0,1,166.79,220a39.17,39.17,0,0,1-20.73,22.26,69.48,69.48,0,0,1-18.19,5.42A114,114,0,0,1,111,249c-2.35,0-4.69.17-7,.26H60.37a8.13,8.13,0,0,0-.84-.13c-4.76-.36-9.56-.46-14.27-1.16a61.63,61.63,0,0,1-12.22-3,63.84,63.84,0,0,1-10.89-5.56A47.28,47.28,0,0,1,10,228.75,43.64,43.64,0,0,1,.73,207C.44,205,.25,202.86,0,200.77,0,198.67,0,196.56,0,194.45ZM101,46.78a6.15,6.15,0,0,0-.62-.08c-9.45,0-18.9,0-28.35,0a1.86,1.86,0,0,0-1.22.87c-1.58,2.42-3.16,4.78-6,6a15.13,15.13,0,0,1-14.3-1,28.72,28.72,0,0,1-8.52-7c-.76-1-1.57-1.95-2.41-2.88a29.16,29.16,0,0,1-5.57-9.05A65.44,65.44,0,0,1,29.82,10a44.41,44.41,0,0,0-.75-7.07c-.19-1.15-1.84-2-3-1.79a8.37,8.37,0,0,0-4.94,3.31,29,29,0,0,0-5.71,11.8,69.09,69.09,0,0,0-1.84,18.94,66.37,66.37,0,0,0,3.17,16.63c3.52,11.32,7.2,22.59,10.92,33.84a48.65,48.65,0,0,1,2.2,22c-1,7.77-3.59,15.12-6.6,22.29-3.71,8.85-7.71,17.57-11.64,26.32A120.24,120.24,0,0,0,2.5,184.52C1,192.69.58,200.82,2.16,209A39.76,39.76,0,0,0,10,226.75a68,68,0,0,0,7.88,8,48.88,48.88,0,0,0,16.89,9.62c9.08,3.1,18.58,3.53,28.07,3.73,5,.1,10-.06,14.94-.1,12.63-.1,25.27-.07,37.9-.36a110.05,110.05,0,0,0,14-1.46,55.49,55.49,0,0,0,8.57-2.18c8.39-2.7,15.93-6.66,21.48-13.87,5.8-7.52,8.67-16.13,9.91-25.36a57.38,57.38,0,0,0-.41-15A102.79,102.79,0,0,0,162.6,164c-3.38-8.24-7-16.38-10.68-24.48a141.74,141.74,0,0,1-7.27-17.85A23.52,23.52,0,0,1,144,110.6a72.31,72.31,0,0,1,5.15-15.78,157.87,157.87,0,0,0,7.73-21.19c2-7.66,3.15-15.38,1.56-23.31-.62-3.11-1.29-6.19-3.1-8.87a7.54,7.54,0,0,0-1.92-2c-2.88-2-5.63-1-6.38,2.39-.69,3.07-1,6.23-1.51,9.35-1.38,8.86-5,16.56-11.89,22.49-4.59,4-9.6,7-16,7.5a16.14,16.14,0,0,1-15.77-9.71,8.11,8.11,0,0,1-.92-2.86c-.07-4.21,0-8.43,0-12.64C101.05,53,101,49.93,101,46.78Z"/><path class="cls-1" d="M38.42,114.11h2.77v19.74H38.42Zm1.72,8.71h11v2.63h-11Zm9.49-8.71H52.4v19.74H49.63Z"/><path class="cls-1" d="M59.28,133.34a4.76,4.76,0,0,1-2-2.1,7.36,7.36,0,0,1-.69-3.32v-2.29a7.19,7.19,0,0,1,.69-3.28,4.66,4.66,0,0,1,2-2.08,6.5,6.5,0,0,1,3.14-.72,6.35,6.35,0,0,1,3.13.72,4.66,4.66,0,0,1,2,2.08,7.19,7.19,0,0,1,.69,3.28V128a7.17,7.17,0,0,1-.69,3.29,4.66,4.66,0,0,1-2,2.08,7.23,7.23,0,0,1-6.27,0Zm5.38-2.82a3.76,3.76,0,0,0,.8-2.55v-2.34a3.67,3.67,0,0,0-.8-2.54,3.28,3.28,0,0,0-4.49,0,3.72,3.72,0,0,0-.8,2.54V128a3.76,3.76,0,0,0,.8,2.55,3.22,3.22,0,0,0,4.49,0Z"/><path class="cls-1" d="M72.16,119.76h2.77v14.09H72.16ZM79,122.42a3.41,3.41,0,0,0-1.29-.23,2.53,2.53,0,0,0-2.77,2.74l-.28-2.71a5.07,5.07,0,0,1,1.68-2,3.94,3.94,0,0,1,2.28-.7,5,5,0,0,1,1.74.28,4,4,0,0,1,1.36.82l-1.8,2.44A2.43,2.43,0,0,0,79,122.42Z"/><path class="cls-1" d="M84,119.76H86.8v14.09H84Zm8.55,5.56a3.24,3.24,0,0,0-.77-2.31,3.36,3.36,0,0,0-4.27-.09,2.64,2.64,0,0,0-.74,2l-.29-2.72a5,5,0,0,1,1.7-2,4.18,4.18,0,0,1,2.33-.69,4.36,4.36,0,0,1,3.55,1.5,6.4,6.4,0,0,1,1.26,4.24v8.55H92.58Z"/><path class="cls-1" d="M102.2,133.81a8.33,8.33,0,0,1-2-.73,7.75,7.75,0,0,1-1.75-1.22l1.64-2a9.28,9.28,0,0,0,2.27,1.3,6.23,6.23,0,0,0,2.23.44,4.73,4.73,0,0,0,2.46-.51,1.69,1.69,0,0,0,.82-1.53,1.21,1.21,0,0,0-.45-1,2.52,2.52,0,0,0-1.12-.45c-.44-.08-1.06-.15-1.87-.21h-.23l-.23,0h-.22a11,11,0,0,1-2.32-.4,3.17,3.17,0,0,1-1.58-1.1,3.55,3.55,0,0,1-.64-2.29,4.73,4.73,0,0,1,.61-2.49,3.77,3.77,0,0,1,1.82-1.49,8.08,8.08,0,0,1,3-.49,11,11,0,0,1,2.1.2,9.41,9.41,0,0,1,3.66,1.62l-1.67,2a9.72,9.72,0,0,0-2.08-1,6.61,6.61,0,0,0-2-.34,3.71,3.71,0,0,0-2.12.49,1.62,1.62,0,0,0-.7,1.44,1,1,0,0,0,.4.86,2.29,2.29,0,0,0,1,.38c.41.06,1,.11,1.74.16h.43l.08,0a11.72,11.72,0,0,1,2.52.39,3.38,3.38,0,0,1,1.74,1.18,4,4,0,0,1,.7,2.55,4.58,4.58,0,0,1-.65,2.52,4,4,0,0,1-2,1.5,9.41,9.41,0,0,1-3.29.5A9.74,9.74,0,0,1,102.2,133.81Z"/><path class="cls-1" d="M114,114.11h2.77v19.74H114Zm4,19.32a3.77,3.77,0,0,1-1.44-1.79l.2-2.94a3.51,3.51,0,0,0,.32,1.55,2.17,2.17,0,0,0,1,1,3,3,0,0,0,1.5.35,2.73,2.73,0,0,0,2.12-.84,3.41,3.41,0,0,0,.75-2.36v-3.05a3.49,3.49,0,0,0-.75-2.4,2.68,2.68,0,0,0-2.12-.86,3.26,3.26,0,0,0-1.5.32,2.2,2.2,0,0,0-1,1,3.21,3.21,0,0,0-.32,1.51l-.29-2.71a4.81,4.81,0,0,1,1.67-1.91,4.1,4.1,0,0,1,2.3-.67,4.72,4.72,0,0,1,2.56.67,4.21,4.21,0,0,1,1.62,2,7.86,7.86,0,0,1,.55,3.11v3.07a7.43,7.43,0,0,1-.57,3.06,4.22,4.22,0,0,1-1.67,1.95,4.92,4.92,0,0,1-2.63.67A4.07,4.07,0,0,1,118,133.43Z"/><path class="cls-1" d="M127.6,119.76h2.83L134.76,132l-1.54,3Zm12.48,0-6,17.39a4,4,0,0,1-.86,1.53,3.12,3.12,0,0,1-1.3.81,6.51,6.51,0,0,1-1.9.24h-.56v-2.66H130a2.16,2.16,0,0,0,1.23-.31,2.59,2.59,0,0,0,.79-1.07l5.22-15.93Z"/><path class="cls-2" d="M47.41,177.57V183a11.56,11.56,0,0,1-1.26,5.5,8.86,8.86,0,0,1-3.57,3.68,10.75,10.75,0,0,1-5.36,1.31,11.48,11.48,0,0,1-5.41-1.23,8.69,8.69,0,0,1-3.62-3.46,10.13,10.13,0,0,1-1.28-5.18V175.4a11.41,11.41,0,0,1,1.27-5.49,9,9,0,0,1,3.57-3.67,10.68,10.68,0,0,1,5.35-1.3,10.44,10.44,0,0,1,4.63,1,9.61,9.61,0,0,1,3.53,2.92,10.56,10.56,0,0,1,1.92,4.37h-5.7a3.62,3.62,0,0,0-1-1.53,4.35,4.35,0,0,0-1.56-1,5.15,5.15,0,0,0-1.86-.34,4.75,4.75,0,0,0-2.47.62A4.13,4.13,0,0,0,33,172.78a5.65,5.65,0,0,0-.59,2.62v8.26A4.43,4.43,0,0,0,33,186a3.86,3.86,0,0,0,1.7,1.54,5.68,5.68,0,0,0,2.54.54,5.09,5.09,0,0,0,2.49-.59,3.93,3.93,0,0,0,1.65-1.7,5.65,5.65,0,0,0,.58-2.64v-.46H37.7v-5.09h9.71Z"/><path class="cls-2" d="M57.9,185.39a3,3,0,0,0,.81,2.25,3.19,3.19,0,0,0,2.31.8,3.05,3.05,0,0,0,2.28-.81,3.25,3.25,0,0,0,.8-2.35l.27,4.38a6.28,6.28,0,0,1-1.85,2.76,4.73,4.73,0,0,1-3.17,1.11,6.17,6.17,0,0,1-5-2.07,8.81,8.81,0,0,1-1.75-5.87V173.24H57.9v12.15Zm6.2-12.15h5.26v20H64.1v-20Z"/><path class="cls-2" d="M74.27,165.22h5.28v5.28H74.27Zm0,8h5.28v20H74.27Z"/><path class="cls-2" d="M82.92,173.24h9.79v4.51H82.92ZM86.21,192A5.71,5.71,0,0,1,85,188V167.42h5.28v19.3a1.9,1.9,0,0,0,.29,1.13,1,1,0,0,0,.85.4h1.31v5.08H90.05A4.94,4.94,0,0,1,86.21,192Z"/><path class="cls-2" d="M98,192a6.18,6.18,0,0,1-1.59-4.65,5.48,5.48,0,0,1,1.78-4.45,8.23,8.23,0,0,1,5.35-1.48h5l.27,4h-5.26a2.81,2.81,0,0,0-1.79.48,1.7,1.7,0,0,0-.6,1.43,1.62,1.62,0,0,0,.75,1.46,4.41,4.41,0,0,0,2.28.47,7.65,7.65,0,0,0,3.15-.49,1.58,1.58,0,0,0,1-1.5l.41,2.91a2.72,2.72,0,0,1-1,1.83,5.72,5.72,0,0,1-2.2,1.12,10,10,0,0,1-2.78.38A6.62,6.62,0,0,1,98,192Zm10.37-11.43a2.59,2.59,0,0,0-.92-2.14,4,4,0,0,0-2.62-.75,6.74,6.74,0,0,0-2.21.37,6.47,6.47,0,0,0-2,1l-3.27-3.22a7.88,7.88,0,0,1,3.16-2.13,11.86,11.86,0,0,1,4.35-.76,10.27,10.27,0,0,1,4.47.88,6.18,6.18,0,0,1,2.82,2.54,7.83,7.83,0,0,1,1,4v12.85h-4.8V180.56Z"/><path class="cls-2" d="M118.33,173.24H124v20h-5.67Zm10.31,5a3.89,3.89,0,0,0-1.29-.19,3.07,3.07,0,0,0-2.48,1,4.31,4.31,0,0,0-.88,2.86l-.4-5.2a7.24,7.24,0,0,1,2.15-2.79,4.69,4.69,0,0,1,2.9-1,6.27,6.27,0,0,1,2.26.39,5,5,0,0,1,1.76,1.17l-3.08,4.3A2.3,2.3,0,0,0,128.64,178.23Z"/><path class="cls-2" d="M139.34,193.21a15.87,15.87,0,0,1-3.18-.94,11.6,11.6,0,0,1-2.62-1.48l3.26-4.07a12.44,12.44,0,0,0,3,1.43,10,10,0,0,0,3,.5,7.76,7.76,0,0,0,2.87-.42q1-.4,1-1.14a1.26,1.26,0,0,0-.44-1,2.7,2.7,0,0,0-1.14-.48,15.89,15.89,0,0,0-1.94-.26l-.71-.08-.72-.08-.17,0h-.16a21.27,21.27,0,0,1-3.58-.72,4.54,4.54,0,0,1-2.29-1.63,5.61,5.61,0,0,1-.93-3.49,5.64,5.64,0,0,1,3.75-5.59,11.69,11.69,0,0,1,4.43-.75,15.6,15.6,0,0,1,3,.31,16,16,0,0,1,2.9.89,13.12,13.12,0,0,1,2.56,1.39l-3.15,3.83a12,12,0,0,0-2.73-1.13,10.06,10.06,0,0,0-2.74-.41,6.57,6.57,0,0,0-2.48.37c-.6.24-.89.58-.89,1a.87.87,0,0,0,.48.78,3.49,3.49,0,0,0,1.17.41c.47.08,1.16.17,2.05.28l.35,0,.34,0,.18,0a.43.43,0,0,1,.17,0,24.37,24.37,0,0,1,3.8.69,4.86,4.86,0,0,1,2.5,1.7,5.86,5.86,0,0,1,1,3.73,6.29,6.29,0,0,1-1,3.57,6.21,6.21,0,0,1-2.93,2.26,12.38,12.38,0,0,1-4.64.78A19.93,19.93,0,0,1,139.34,193.21Z"/></g></g></svg>