<?xml version="1.0" encoding="utf-8"?>
<!-- Generator: Adobe Illustrator 25.2.0, SVG Export Plug-In . SVG Version: 6.00 Build 0)  -->
<svg version="1.1" id="Layer_1" xmlns="http://www.w3.org/2000/svg" xmlns:xlink="http://www.w3.org/1999/xlink" x="0px" y="0px"
	 viewBox="0 0 595.28 841.89" style="enable-background:new 0 0 595.28 841.89;" xml:space="preserve">
<style type="text/css">
	.st0{display:none;fill:#FFFFFF;}
	.st1{fill:#ED1C24;}
</style>
<g>
	<path class="st0" d="M131.74,73.14c86.64,0,173.28,0,260.01,0c0,117.23,0,234.46,0,351.7c-0.14-0.48-0.34-0.94-0.42-1.43
		c-1.43-8.49-2.5-17.06-4.33-25.46c-5.26-24.18-16.18-46.23-26.35-68.54c-5.34-11.72-11.12-23.25-14.72-35.69
		c-1.31-4.52-1.91-9.08-1.62-13.76c0.71-11.55,5.05-22.09,9.43-32.53c6.11-14.55,11.99-29.13,15.73-44.51
		c3.69-15.17,4.37-30.32,0.11-45.47c-1.5-5.35-3.45-10.56-8.24-14.01c-3.97-2.86-8.9-3.1-11.72-0.07c-1.61,1.73-2.85,4.18-3.36,6.5
		c-1.09,4.95-1.63,10.03-2.36,15.06c-2.35,16.17-8.79,30.26-21.38,41.02c-6.57,5.62-13.57,10.61-22.42,12.27
		c-10.54,1.98-19.84,0.09-27.15-8.2c-3.87-4.39-6.4-9.3-6.26-15.55c0.27-11.95,0.08-23.91,0.08-35.87c0-0.84,0-1.69,0-2.44
		c-0.54-0.12-0.68-0.18-0.83-0.18c-18.38,0.01-36.76,0.04-55.13,0.01c-1.29,0-1.71,0.58-2.25,1.58c-2.49,4.56-5.2,8.93-10.27,11.15
		c-9.01,3.95-17.43,2.56-25.7-2.35c-8.77-5.2-15.31-12.62-21.26-20.63c-7.93-10.68-11.13-23.21-12.88-36.05
		c-1.21-8.88-1.28-17.91-1.78-26.88C136.46,78.82,135.25,75.41,131.74,73.14z"/>
	<path class="st0" d="M80.8,427.05c0-117.97,0-235.94,0-353.91c15.65,0,31.3,0,46.95,0c-5.27,1.54-8.91,5.09-12.02,9.44
		c-4.53,6.33-7.41,13.3-9.05,20.88c-2.71,12.53-4.07,25.12-2.81,37.95c0.84,8.64,2.63,17.11,5.17,25.34
		c6.54,21.17,13.43,42.24,20.35,63.29c4.05,12.32,5.54,24.86,3.95,37.73c-1.78,14.4-6.43,28.01-12.07,41.24
		c-8.22,19.32-17.04,38.39-25.35,57.67c-6.89,15.97-11.42,32.65-13.81,49.9C81.63,420.06,81.24,423.56,80.8,427.05z"/>
	<path d="M80.8,427.05c0.43-3.49,0.83-6.99,1.31-10.47c2.39-17.24,6.92-33.92,13.81-49.9c8.31-19.28,17.13-38.35,25.35-57.67
		c5.63-13.23,10.29-26.85,12.07-41.24c1.59-12.87,0.09-25.41-3.95-37.73c-6.91-21.05-13.8-42.12-20.35-63.29
		c-2.54-8.23-4.32-16.7-5.17-25.34c-1.25-12.83,0.1-25.42,2.81-37.95c1.64-7.58,4.52-14.55,9.05-20.88
		c3.11-4.35,6.75-7.9,12.02-9.44c1.33,0,2.66,0,3.99,0c3.51,2.27,4.72,5.68,4.95,9.67c0.5,8.97,0.57,18,1.78,26.88
		c1.75,12.83,4.95,25.36,12.88,36.05c5.95,8.02,12.49,15.43,21.26,20.63c8.26,4.9,16.69,6.3,25.7,2.35
		c5.07-2.22,7.78-6.59,10.27-11.15c0.55-1,0.96-1.58,2.25-1.58c18.38,0.03,36.76,0,55.13-0.01c0.14,0,0.29,0.06,0.83,0.18
		c0,0.75,0,1.6,0,2.44c0,11.96,0.19,23.92-0.08,35.87c-0.14,6.24,2.39,11.16,6.26,15.55c7.31,8.29,16.61,10.18,27.15,8.2
		c8.85-1.66,15.85-6.65,22.42-12.27c12.59-10.76,19.03-24.85,21.38-41.02c0.73-5.03,1.26-10.11,2.36-15.06
		c0.51-2.32,1.75-4.77,3.36-6.5c2.82-3.03,7.75-2.79,11.72,0.07c4.8,3.45,6.74,8.66,8.24,14.01c4.26,15.15,3.58,30.3-0.11,45.47
		c-3.74,15.38-9.62,29.96-15.73,44.51c-4.38,10.44-8.73,20.98-9.43,32.53c-0.29,4.68,0.32,9.24,1.62,13.76
		c3.59,12.45,9.38,23.97,14.72,35.69c10.17,22.31,21.09,44.36,26.35,68.54c1.83,8.4,2.9,16.97,4.33,25.46
		c0.08,0.49,0.28,0.95,0.42,1.43c0,7.23,0,14.47,0,21.7c-0.12,0.26-0.33,0.51-0.36,0.77c-0.89,9.11-3.78,17.7-7.05,26.15
		c-7.16,18.51-19.63,32.14-37.73,40.5c-10.56,4.88-21.62,8.01-33.1,9.87c-10.21,1.66-20.47,2.28-30.79,2.4
		c-4.26,0.05-8.52,0.31-12.78,0.47c-26.43,0-52.86,0-79.29,0c-0.51-0.08-1.01-0.19-1.52-0.23c-8.66-0.66-17.4-0.84-25.97-2.12
		c-7.53-1.12-15.13-2.82-22.25-5.45c-6.92-2.56-13.5-6.26-19.82-10.13c-8.4-5.14-15.85-11.62-22.05-19.31
		c-9.33-11.55-14.87-24.83-16.93-39.53c-0.53-3.78-0.87-7.58-1.3-11.38C80.8,434.72,80.8,430.89,80.8,427.05z M264.69,158.28
		c-0.56-0.08-0.84-0.15-1.12-0.15c-17.2-0.01-34.4-0.03-51.6,0.06c-0.76,0-1.75,0.86-2.22,1.58c-2.87,4.41-5.75,8.7-10.92,10.88
		c-9.04,3.82-17.73,3.01-26.02-1.9c-5.78-3.42-11.34-7.21-15.51-12.65c-1.39-1.81-2.87-3.55-4.39-5.25
		c-4.38-4.88-7.77-10.35-10.13-16.47c-5.33-13.86-7.71-28.22-7.71-43.06c0-4.29-0.67-8.61-1.36-12.87
		c-0.34-2.08-3.36-3.64-5.48-3.25c-3.85,0.71-6.67,3.14-8.99,6.02c-5.1,6.33-8.53,13.48-10.39,21.48
		c-2.64,11.36-3.9,22.85-3.35,34.46c0.49,10.33,2.7,20.45,5.76,30.28c6.41,20.6,13.11,41.1,19.88,61.58
		c4.33,13.11,5.84,26.42,4.01,40.11c-1.89,14.15-6.53,27.53-12.01,40.58c-6.76,16.1-14.03,31.98-21.19,47.9
		c-7.43,16.52-13.42,33.46-16.6,51.36c-2.65,14.87-3.5,29.67-0.61,44.62c2.29,11.87,6.66,22.83,14.2,32.24
		c4.26,5.3,9.25,10.09,14.34,14.63c8.97,7.99,19.44,13.64,30.75,17.51c16.53,5.65,33.81,6.42,51.08,6.78
		c9.06,0.19,18.13-0.1,27.19-0.17c23-0.18,46-0.14,68.99-0.66c8.5-0.19,17.02-1.39,25.45-2.65c5.29-0.8,10.5-2.34,15.61-3.98
		c15.26-4.9,28.99-12.12,39.09-25.23c10.55-13.69,15.77-29.36,18.03-46.16c1.22-9.1,0.44-18.23-0.75-27.35
		c-2.1-16.16-5.82-31.92-11.99-46.97c-6.14-14.99-12.73-29.8-19.44-44.54c-4.85-10.66-9.84-21.24-13.23-32.5
		c-2-6.64-2.4-13.33-1.2-20.11c1.77-10.01,5.41-19.44,9.37-28.71c5.39-12.61,10.52-25.3,14.07-38.57c3.72-13.94,5.73-28,2.85-42.42
		c-1.13-5.67-2.36-11.28-5.64-16.15c-0.92-1.37-2.15-2.67-3.51-3.6c-5.24-3.59-10.23-1.83-11.61,4.35
		c-1.25,5.59-1.86,11.33-2.74,17.01c-2.51,16.13-9.17,30.14-21.64,40.94c-8.35,7.23-17.47,12.67-29.05,13.65
		c-12.11,1.03-23.95-6.6-28.7-17.67c-0.72-1.68-1.64-3.46-1.67-5.21c-0.13-7.67,0.04-15.34,0.08-23.01
		C264.71,169.54,264.69,164.01,264.69,158.28z"/>
	<path class="st0" d="M80.8,438.56c0.43,3.79,0.77,7.6,1.3,11.38c2.06,14.7,7.6,27.98,16.93,39.53
		c6.21,7.68,13.65,14.16,22.05,19.31c6.32,3.87,12.9,7.57,19.82,10.13c7.13,2.63,14.72,4.33,22.25,5.45
		c8.57,1.27,17.31,1.45,25.97,2.12c0.51,0.04,1.01,0.15,1.52,0.23c-36.62,0-73.23,0-109.85,0C80.8,497.33,80.8,467.95,80.8,438.56z"
		/>
	<path class="st0" d="M269.94,526.71c4.26-0.16,8.52-0.42,12.78-0.47c10.32-0.12,20.58-0.74,30.79-2.4c11.48-1.87,22.53-5,33.1-9.87
		c18.1-8.36,30.58-21.99,37.73-40.5c3.27-8.45,6.16-17.04,7.05-26.15c0.03-0.27,0.23-0.52,0.36-0.77c0,26.72,0,53.45,0,80.17
		C351.14,526.71,310.54,526.71,269.94,526.71z"/>
	<path class="st0" d="M264.8,158.4c0,5.72,0.02,11.25,0,16.78c-0.04,7.67-0.21,15.34-0.08,23.01c0.03,1.75,0.95,3.53,1.67,5.21
		c4.75,11.06,16.59,18.7,28.7,17.67c11.59-0.98,20.7-6.42,29.05-13.65c12.48-10.8,19.13-24.81,21.64-40.94
		c0.88-5.68,1.49-11.41,2.74-17.01c1.38-6.18,6.37-7.94,11.61-4.35c1.36,0.93,2.59,2.23,3.51,3.6c3.27,4.88,4.51,10.48,5.64,16.15
		c2.88,14.42,0.87,28.48-2.85,42.42c-3.54,13.27-8.68,25.96-14.07,38.57c-3.96,9.28-7.6,18.71-9.37,28.71
		c-1.2,6.79-0.79,13.48,1.2,20.11c3.38,11.26,8.37,21.83,13.23,32.5c6.71,14.74,13.3,29.56,19.44,44.54
		c6.17,15.06,9.89,30.81,11.99,46.97c1.19,9.12,1.97,18.25,0.75,27.35c-2.26,16.8-7.48,32.47-18.03,46.16
		c-10.1,13.11-23.83,20.33-39.09,25.23c-5.11,1.64-10.32,3.18-15.61,3.98c-8.43,1.27-16.95,2.47-25.45,2.65
		c-22.99,0.51-45.99,0.47-68.99,0.66c-9.06,0.07-18.13,0.36-27.19,0.17c-17.27-0.36-34.55-1.13-51.08-6.78
		c-11.31-3.87-21.78-9.52-30.75-17.51c-5.09-4.54-10.09-9.33-14.34-14.63c-7.54-9.4-11.91-20.37-14.2-32.24
		c-2.89-14.95-2.04-29.75,0.61-44.62c3.19-17.9,9.17-34.85,16.6-51.36c7.16-15.92,14.43-31.81,21.19-47.9
		c5.48-13.05,10.11-26.43,12.01-40.58c1.83-13.69,0.32-27.01-4.01-40.11c-6.77-20.48-13.47-40.99-19.88-61.58
		c-3.06-9.83-5.27-19.95-5.76-30.28c-0.55-11.62,0.71-23.1,3.35-34.46c1.86-7.99,5.29-15.14,10.39-21.48
		c2.32-2.88,5.15-5.31,8.99-6.02c2.12-0.39,5.14,1.16,5.48,3.25c0.69,4.25,1.36,8.58,1.36,12.87c-0.01,14.84,2.38,29.2,7.71,43.06
		c2.35,6.12,5.75,11.59,10.13,16.47c1.52,1.7,3,3.44,4.39,5.25c4.17,5.45,9.73,9.23,15.51,12.65c8.29,4.91,16.98,5.72,26.02,1.9
		c5.17-2.18,8.04-6.47,10.92-10.88c0.47-0.72,1.46-1.58,2.22-1.58c17.2-0.09,34.4-0.06,51.6-0.06
		C263.96,158.26,264.24,158.33,264.8,158.4z"/>
</g>
<g>
	<g>
		<path d="M150.72,280.83h5.04v35.92h-5.04V280.83z M153.86,296.67h19.94v4.79h-19.94V296.67z M171.13,280.83h5.04v35.92h-5.04
			V280.83z"/>
		<path d="M188.69,315.82c-1.58-0.87-2.79-2.15-3.62-3.82c-0.83-1.67-1.25-3.69-1.25-6.04v-4.18c0-2.32,0.42-4.31,1.25-5.97
			c0.83-1.66,2.04-2.92,3.62-3.78s3.48-1.3,5.71-1.3s4.13,0.43,5.71,1.3s2.79,2.12,3.62,3.78s1.25,3.64,1.25,5.97v4.25
			c0,2.34-0.42,4.34-1.25,5.99s-2.04,2.92-3.62,3.79c-1.58,0.87-3.48,1.31-5.71,1.31S190.27,316.69,188.69,315.82z M198.49,310.68
			c0.96-1.1,1.45-2.65,1.45-4.64v-4.25c0-1.99-0.48-3.53-1.45-4.62c-0.96-1.09-2.33-1.63-4.09-1.63c-1.76,0-3.12,0.54-4.09,1.63
			c-0.96,1.09-1.45,2.63-1.45,4.62v4.25c0,1.99,0.48,3.54,1.45,4.64c0.96,1.1,2.33,1.66,4.09,1.66
			C196.16,312.33,197.53,311.78,198.49,310.68z"/>
		<path d="M212.14,291.11h5.04v25.64h-5.04V291.11z M224.57,295.95c-0.68-0.28-1.46-0.42-2.35-0.42c-1.6,0-2.84,0.44-3.72,1.32
			c-0.88,0.88-1.32,2.1-1.32,3.67l-0.52-4.94c0.79-1.53,1.81-2.72,3.06-3.57c1.25-0.85,2.63-1.27,4.15-1.27
			c1.17,0,2.23,0.17,3.17,0.51c0.95,0.34,1.77,0.84,2.48,1.49l-3.29,4.45C225.8,296.65,225.24,296.23,224.57,295.95z"/>
		<path d="M233.73,291.11h5.04v25.64h-5.04V291.11z M249.3,301.22c0-1.81-0.47-3.21-1.41-4.2c-0.94-0.99-2.26-1.48-3.95-1.48
			c-1.65,0-2.92,0.44-3.82,1.31c-0.9,0.87-1.35,2.1-1.35,3.68l-0.52-4.94c0.79-1.55,1.82-2.74,3.1-3.58
			c1.28-0.84,2.69-1.26,4.24-1.26c2.78,0,4.94,0.91,6.46,2.73c1.52,1.82,2.29,4.39,2.29,7.72v15.56h-5.04V301.22z"/>
		<path d="M266.8,316.68c-1.33-0.3-2.57-0.74-3.72-1.33c-1.15-0.59-2.22-1.33-3.19-2.22l2.99-3.68c1.38,1.05,2.76,1.84,4.13,2.37
			c1.37,0.53,2.72,0.79,4.05,0.79c1.99,0,3.49-0.31,4.48-0.93c1-0.62,1.49-1.54,1.49-2.78c0-0.82-0.27-1.44-0.82-1.85
			c-0.54-0.41-1.22-0.69-2.03-0.83c-0.81-0.14-1.94-0.27-3.41-0.38c-0.13,0-0.27,0-0.42-0.01c-0.15-0.01-0.29-0.02-0.42-0.04
			c-0.07,0-0.13,0-0.2-0.01c-0.07-0.01-0.13-0.01-0.2-0.01c-1.66-0.13-3.07-0.37-4.22-0.73s-2.11-1.02-2.88-1.99
			c-0.77-0.97-1.15-2.36-1.15-4.18c0-1.81,0.37-3.32,1.11-4.52s1.84-2.1,3.31-2.71c1.47-0.6,3.3-0.9,5.51-0.9
			c1.33,0,2.61,0.12,3.82,0.37s2.37,0.61,3.47,1.1c1.1,0.49,2.17,1.1,3.19,1.84l-3.04,3.68c-1.28-0.82-2.55-1.44-3.79-1.85
			c-1.24-0.41-2.46-0.62-3.64-0.62c-1.71,0-3,0.29-3.85,0.88c-0.86,0.58-1.28,1.46-1.28,2.63c0,0.69,0.24,1.21,0.73,1.56
			s1.1,0.58,1.84,0.69s1.79,0.21,3.16,0.3c0.1,0.02,0.2,0.02,0.31,0.02c0.11,0,0.22,0.01,0.33,0.02c0.05,0,0.1,0,0.15,0
			s0.1,0.01,0.15,0.02c1.79,0.12,3.32,0.35,4.58,0.72c1.26,0.36,2.32,1.08,3.17,2.15c0.86,1.07,1.28,2.62,1.28,4.64
			c0,1.84-0.4,3.37-1.19,4.58s-1.98,2.12-3.57,2.73c-1.59,0.61-3.59,0.91-5.99,0.91C269.55,317.13,268.13,316.98,266.8,316.68z"/>
		<path d="M288.23,280.83h5.04v35.92h-5.04V280.83z M295.55,315.98c-1.19-0.77-2.06-1.85-2.62-3.25l0.35-5.36
			c0,1.1,0.2,2.04,0.59,2.82c0.39,0.77,0.97,1.37,1.72,1.78c0.75,0.41,1.66,0.62,2.73,0.62c1.66,0,2.95-0.51,3.86-1.52
			c0.91-1.01,1.37-2.44,1.37-4.29v-5.56c0-1.88-0.46-3.34-1.37-4.37s-2.2-1.56-3.86-1.56c-1.07,0-1.98,0.2-2.73,0.59
			c-0.75,0.4-1.32,0.98-1.72,1.74c-0.4,0.77-0.59,1.68-0.59,2.75l-0.52-4.94c0.77-1.5,1.79-2.66,3.04-3.47s2.64-1.22,4.18-1.22
			c1.81,0,3.36,0.41,4.66,1.22s2.28,2.01,2.95,3.57c0.68,1.56,1.01,3.45,1.01,5.66v5.58c0,2.17-0.35,4.04-1.04,5.58
			c-0.69,1.55-1.7,2.73-3.04,3.54c-1.33,0.82-2.93,1.22-4.79,1.22C298.12,317.13,296.73,316.74,295.55,315.98z"/>
		<path d="M313.04,291.11h5.14l7.88,22.28l-2.79,5.46L313.04,291.11z M335.74,291.11l-10.92,31.65c-0.39,1.17-0.91,2.1-1.56,2.78
			c-0.64,0.68-1.43,1.17-2.37,1.47c-0.94,0.3-2.09,0.44-3.46,0.44h-1.01v-4.84h1.01c0.94,0,1.68-0.19,2.24-0.57
			c0.55-0.38,1.03-1.03,1.45-1.95l9.49-28.98H335.74z"/>
	</g>
</g>
<g>
	<g>
		<path class="st1" d="M167.09,396.32v9.96c0,3.79-0.77,7.12-2.3,10.01c-1.53,2.89-3.7,5.12-6.5,6.7c-2.81,1.58-6.06,2.37-9.75,2.37
			c-3.72,0-7-0.74-9.84-2.23c-2.84-1.48-5.04-3.58-6.59-6.29c-1.56-2.71-2.33-5.86-2.33-9.43v-15.04c0-3.79,0.77-7.12,2.3-9.99
			c1.53-2.88,3.7-5.1,6.5-6.68c2.81-1.58,6.05-2.37,9.75-2.37c3.04,0,5.84,0.63,8.42,1.88c2.57,1.25,4.72,3.02,6.43,5.31
			c1.72,2.29,2.88,4.94,3.49,7.96h-10.38c-0.35-1.08-0.93-2-1.74-2.79c-0.81-0.78-1.75-1.38-2.84-1.79s-2.22-0.61-3.38-0.61
			c-1.71,0-3.21,0.37-4.51,1.12c-1.3,0.75-2.3,1.81-3.02,3.19c-0.71,1.38-1.07,2.97-1.07,4.77v15.04c0,1.59,0.36,2.99,1.09,4.21
			c0.72,1.22,1.75,2.15,3.09,2.81c1.33,0.66,2.88,0.98,4.63,0.98c1.73,0,3.24-0.36,4.54-1.07c1.3-0.71,2.3-1.75,3-3.1
			c0.7-1.36,1.05-2.96,1.05-4.8v-0.84h-7.71v-9.26H167.09z"/>
		<path class="st1" d="M186.17,410.56c0,1.75,0.5,3.12,1.49,4.09c0.99,0.97,2.39,1.46,4.19,1.46c1.8,0,3.19-0.5,4.16-1.49
			c0.97-0.99,1.46-2.41,1.46-4.26l0.49,7.96c-0.68,1.99-1.81,3.66-3.38,5.02c-1.58,1.36-3.5,2.03-5.77,2.03
			c-3.9,0-6.92-1.26-9.05-3.77c-2.13-2.51-3.19-6.07-3.19-10.68v-22.48h9.61V410.56z M197.46,388.43h9.57v36.4h-9.57V388.43z"/>
		<path class="st1" d="M215.98,373.84h9.61v9.61h-9.61V373.84z M215.98,388.43h9.61v36.4h-9.61V388.43z"/>
		<path class="st1" d="M231.72,388.43h17.81v8.21h-17.81V388.43z M237.7,422.57c-1.48-1.63-2.23-4.03-2.23-7.21v-37.52h9.61v35.14
			c0,0.89,0.18,1.57,0.53,2.05c0.35,0.48,0.86,0.72,1.54,0.72h2.38v9.26h-4.84C241.52,425.01,239.18,424.2,237.7,422.57z"/>
		<path class="st1" d="M259.09,422.57c-1.93-1.86-2.89-4.68-2.89-8.47c0-3.6,1.08-6.3,3.24-8.1c2.16-1.8,5.41-2.7,9.73-2.7h9.12
			l0.49,7.33h-9.57c-1.45,0-2.54,0.29-3.26,0.86s-1.09,1.44-1.09,2.61c0,1.19,0.46,2.08,1.37,2.65c0.91,0.57,2.29,0.86,4.14,0.86
			c2.57,0,4.48-0.29,5.73-0.88c1.25-0.58,1.88-1.5,1.88-2.74l0.74,5.29c-0.14,1.31-0.74,2.42-1.81,3.33c-1.06,0.91-2.4,1.6-4,2.05
			c-1.6,0.46-3.29,0.68-5.07,0.68C263.94,425.36,261.02,424.43,259.09,422.57z M277.97,401.76c0-1.68-0.56-2.98-1.68-3.89
			c-1.12-0.91-2.71-1.37-4.77-1.37c-1.36,0-2.7,0.22-4.03,0.67c-1.33,0.44-2.51,1.06-3.54,1.86l-5.96-5.86
			c1.45-1.66,3.37-2.95,5.75-3.88c2.38-0.92,5.03-1.38,7.93-1.38c3.18,0,5.89,0.53,8.13,1.6c2.25,1.06,3.96,2.61,5.14,4.63
			c1.18,2.02,1.77,4.46,1.77,7.31v23.39h-8.73V401.76z"/>
		<path class="st1" d="M296.17,388.43h10.31v36.4h-10.31V388.43z M314.93,397.52c-0.68-0.23-1.46-0.35-2.35-0.35
			c-1.94,0-3.44,0.63-4.51,1.88c-1.06,1.25-1.6,2.99-1.6,5.21l-0.74-9.47c1-2.17,2.31-3.86,3.91-5.07c1.6-1.2,3.36-1.81,5.28-1.81
			c1.52,0,2.89,0.24,4.12,0.72c1.23,0.48,2.3,1.19,3.21,2.12l-5.61,7.82C316.19,398.1,315.61,397.75,314.93,397.52z"/>
		<path class="st1" d="M334.4,424.78c-2.06-0.39-3.99-0.95-5.79-1.7c-1.8-0.75-3.39-1.65-4.77-2.7l5.93-7.4
			c1.75,1.12,3.59,1.99,5.5,2.59c1.92,0.61,3.74,0.91,5.47,0.91c2.24,0,3.99-0.25,5.22-0.75s1.86-1.2,1.86-2.09
			c0-0.82-0.27-1.44-0.81-1.86c-0.54-0.42-1.23-0.72-2.07-0.89c-0.84-0.17-2.02-0.33-3.54-0.47c-0.42-0.05-0.85-0.09-1.28-0.14
			c-0.43-0.05-0.87-0.09-1.32-0.14c-0.09-0.02-0.19-0.04-0.3-0.05c-0.11-0.01-0.21-0.02-0.3-0.02c-2.71-0.35-4.89-0.78-6.52-1.3
			c-1.64-0.51-3.02-1.5-4.16-2.96c-1.13-1.46-1.7-3.58-1.7-6.36c0-2.43,0.58-4.51,1.75-6.24c1.17-1.73,2.86-3.04,5.08-3.94
			c2.22-0.9,4.91-1.35,8.07-1.35c1.85,0,3.69,0.19,5.52,0.56c1.83,0.37,3.59,0.91,5.28,1.61c1.68,0.7,3.24,1.54,4.66,2.53
			l-5.72,6.98c-1.59-0.89-3.25-1.58-4.98-2.07c-1.73-0.49-3.39-0.74-4.98-0.74c-1.94,0-3.45,0.22-4.52,0.67
			c-1.08,0.44-1.61,1.06-1.61,1.86c0,0.61,0.29,1.08,0.86,1.42s1.29,0.58,2.14,0.74c0.85,0.15,2.1,0.32,3.73,0.51
			c0.21,0.02,0.42,0.05,0.63,0.07c0.21,0.02,0.42,0.05,0.63,0.07c0.09,0.02,0.2,0.04,0.32,0.04c0.12,0,0.22,0.01,0.32,0.04
			c2.83,0.33,5.13,0.75,6.91,1.26s3.29,1.54,4.54,3.09s1.88,3.81,1.88,6.8c0,2.52-0.61,4.69-1.82,6.49
			c-1.22,1.8-2.99,3.17-5.33,4.12c-2.34,0.95-5.16,1.42-8.45,1.42C338.57,425.36,336.46,425.17,334.4,424.78z"/>
	</g>
</g>
</svg>
